<svg version="1" xmlns="http://www.w3.org/2000/svg" width="346.667" height="346.667" viewBox="0 0 260.000000 260.000000"><path d="M110.5 1.6c-29.9 4.5-60 21.3-78.7 43.8-3.6 4.3-4.8 6.5-4.6 8.5.2 1.4.8 2.5 1.5 2.4.7-.2 1 .4.7 1.2-.5 1.1.2 1.5 2.2 1.6 2.4.1 2.5.2.7.6-2.4.5-2.9 2.1-1.3 4.1.7.9.7.9-.2.2-2-1.6-3.6-1.1-4.1 1.2-.4 2-.4 1.9-.6-.4-.1-2-.5-2.6-1.6-2.2-1.1.5-1.3.2-.9-1.1.5-1.3.2-1.6-1.2-1.3-4 .7-13.5 20.6-17.8 36.9-5.2 20.1-5.7 38.8-1.5 59.1 9.3 45.8 43.1 83.4 88 97.6 59.7 19 124.9-8.3 153.7-64.4 9.3-18.2 13.3-33.9 13.9-55.1.6-17.5-1-30-5.8-44.5-19.6-60.1-80.3-97.7-142.4-88.2zM130 58.7c-4.1 4.3-20.6 21.2-36.8 37.5l-29.5 29.7-16.1.7-16.1.7L60 98.1C75.7 82 90.2 66.8 92.3 64.4l3.9-4.4h-3.6C89 60 89 60 89 55.5V51h48.3l-7.3 7.7zm53.5 31.1l37 37.2h-29l-22.2-22.2L147 82.5l-21.8 21.8-21.7 21.7h-32l37-37c20.3-20.4 37.2-36.9 37.5-36.7.3.1 17.1 17 37.5 37.5zm-99 65.2c12.1 12.1 22.4 22 22.9 22 .6 0 10.9-9.8 23-21.8l22.1-21.7 14.8.5 14.7.5-36.7 36.7-36.8 36.8L71 170.5 33.5 133h29l22 22zm136.4-21.2c-.2.6-14.1 15.3-30.9 32.7-16.8 17.4-30.6 32.1-30.8 32.6-.2.5 1 .9 2.6.9 2.8 0 3 .3 3.4 4.5l.3 4.5h-48.7l37-37.8 37-37.7 15.2-.4c10.5-.2 15.1 0 14.9.7zm20.7 20.5c1-.4 1.2 0 .8 1.1-.5 1.2 0 1.6 2.2 1.7 2.8 0 2.8.1.7.9-2.6 1.1-2.8 2-1 3.9 1 1.1.8 1.2-.9.3-2.6-1.4-3.4-.7-3.5 3.2l-.2 3.1-.6-3.5c-.5-2.6-1.1-3.5-2.5-3.3-1.3.1-1.5-.2-.7-1 .7-.7.5-1.4-.7-2.3-1.6-1.3-1.6-1.3.1-1.4 1.5 0 1.6-.3.6-2.3-.9-1.8-.9-2 .2-1 2.1 2 2.9 1.5 3.1-2l.1-3.2.4 3.2c.3 2.3.8 3 1.9 2.6z"/><path d="M23.8 56c-1.9 3.3-1.5 3.9.8 1.5.9-.8 1.4-2.2 1.2-3-.2-1-.9-.5-2 1.5z"/></svg>